<svg width="33" height="40" viewBox="0 0 33 40" fill="none" xmlns="http://www.w3.org/2000/svg">
<path d="M32.2963 27.7898C32.1641 27.5854 31.9492 27.449 31.7079 27.4164C28.5344 27.0019 26.2978 24.0933 26.7123 20.9198C27.0052 18.6781 28.5748 16.8114 30.733 16.1382C31.1713 15.9977 31.4128 15.5286 31.2723 15.0903C31.2504 15.0221 31.2199 14.9569 31.1814 14.8965C29.7251 12.2682 27.1356 10.4607 24.1664 9.99988C22.6702 10.0713 21.1957 10.3871 19.8015 10.9349C18.8001 11.3378 17.7428 11.5846 16.6665 11.6665C15.5902 11.5846 14.5328 11.3378 13.5315 10.9349C12.1373 10.3871 10.6628 10.0713 9.16656 9.99988C6.05495 9.99988 0 14.4115 0 22.4998C0 30.1863 5.60659 39.9996 9.99991 39.9996C11.6762 40.0146 13.3324 39.6331 14.8332 38.8863C15.3985 38.5746 16.0232 38.386 16.6666 38.3329C17.3099 38.386 17.9347 38.5746 18.4999 38.8863C20.0008 39.6331 21.6569 40.0146 23.3332 39.9996C26.8166 39.9996 30.7482 34.0197 32.3948 28.4781C32.4637 28.2453 32.4278 27.9939 32.2963 27.7898Z" fill="#37474F"/>
<path d="M15.833 9.99991C20.8933 9.99437 24.9941 5.89362 24.9996 0.833352C24.9996 0.373122 24.6265 0 24.1663 0C19.106 0.00554683 15.0052 4.10629 14.9998 9.16656C14.9997 9.62679 15.3728 9.99991 15.833 9.99991Z" fill="#37474F"/>
</svg>
