<svg width="23" height="11" viewBox="0 0 23 11" fill="none" xmlns="http://www.w3.org/2000/svg">
<path d="M5.49994 0.984082C5.63155 0.983321 5.76201 1.00855 5.88385 1.05831C6.00568 1.10807 6.1165 1.1814 6.20994 1.27408C6.30367 1.36705 6.37806 1.47765 6.42883 1.5995C6.4796 1.72136 6.50574 1.85207 6.50574 1.98408C6.50574 2.11609 6.4796 2.2468 6.42883 2.36866C6.37806 2.49052 6.30367 2.60112 6.20994 2.69408L2.89994 5.98408L6.07994 9.29408C6.26619 9.48144 6.37073 9.73489 6.37073 9.99908C6.37073 10.2633 6.26619 10.5167 6.07994 10.7041C5.98698 10.7978 5.87638 10.8722 5.75452 10.923C5.63266 10.9737 5.50195 10.9999 5.36994 10.9999C5.23793 10.9999 5.10722 10.9737 4.98536 10.923C4.8635 10.8722 4.7529 10.7978 4.65994 10.7041L0.799941 6.70408C0.616713 6.51715 0.514083 6.26583 0.514083 6.00408C0.514083 5.74233 0.616713 5.49101 0.799941 5.30408L4.79994 1.30408C4.8897 1.20715 4.99777 1.12896 5.11792 1.07404C5.23807 1.01911 5.36791 0.988539 5.49994 0.984082Z" fill="white"/>
<line x1="2.99988" y1="5.98407" x2="21.9999" y2="5.98407" stroke="white" stroke-width="2" stroke-linecap="round"/>
</svg>
