<svg width="23" height="11" viewBox="0 0 23 11" fill="none" xmlns="http://www.w3.org/2000/svg">
<path d="M17.4998 10.0157C17.3682 10.0164 17.2377 9.99121 17.1159 9.94145C16.9941 9.89168 16.8833 9.81836 16.7898 9.72568C16.6961 9.63271 16.6217 9.52211 16.5709 9.40025C16.5202 9.27839 16.494 9.14769 16.494 9.01568C16.494 8.88367 16.5202 8.75296 16.5709 8.6311C16.6217 8.50924 16.6961 8.39864 16.7898 8.30568L20.0998 5.01568L16.9198 1.70568C16.7336 1.51831 16.629 1.26486 16.629 1.00068C16.629 0.73649 16.7336 0.483039 16.9198 0.295676C17.0128 0.201948 17.1234 0.127553 17.2452 0.0767846C17.3671 0.0260159 17.4978 -0.00012207 17.6298 -0.00012207C17.7618 -0.00012207 17.8925 0.0260159 18.0144 0.0767846C18.1363 0.127553 18.2469 0.201948 18.3398 0.295676L22.1998 4.29568C22.383 4.4826 22.4857 4.73392 22.4857 4.99568C22.4857 5.25743 22.383 5.50875 22.1998 5.69568L18.1998 9.69568C18.1101 9.79261 18.002 9.8708 17.8818 9.92572C17.7617 9.98065 17.6318 10.0112 17.4998 10.0157Z" fill="#F16214"/>
<line x1="19.9999" y1="5.01575" x2="0.999878" y2="5.01575" stroke="#F16214" stroke-width="2" stroke-linecap="round"/>
</svg>
