<svg width="38" height="40" viewBox="0 0 38 40" fill="none" xmlns="http://www.w3.org/2000/svg">
<path d="M21.5764 20.0033L1.48938 39.3458C0.548733 38.7029 -0.00974673 37.6337 0.000128818 36.4944V3.51228C-0.00974673 2.37302 0.548733 1.30374 1.48938 0.660889L21.5764 20.0033Z" fill="#2196F3"/>
<path d="M28.6052 13.2473L21.5765 20.0035L1.4895 0.661064C1.56519 0.602407 1.64402 0.547836 1.72558 0.497606C2.7872 -0.145837 4.11325 -0.166609 5.19454 0.443121L28.6052 13.2473Z" fill="#4CAF50"/>
<path d="M37.123 20.0037C37.1361 21.2898 36.4372 22.4778 35.3068 23.0912L28.6051 26.7599L21.5764 20.0037L28.6051 13.2474L35.3068 16.9161C36.4372 17.5296 37.1361 18.7176 37.123 20.0037Z" fill="#FFC107"/>
<path d="M28.6052 26.7595L5.19454 39.5637C4.11086 40.164 2.78984 40.1432 1.72558 39.5092C1.64402 39.459 1.56519 39.4044 1.4895 39.3458L21.5766 20.0033L28.6052 26.7595Z" fill="#F44336"/>
</svg>
